<svg width="220" height="80" viewBox="0 0 220 80" fill="none" xmlns="http://www.w3.org/2000/svg">
<path d="M5.29832 75.5894V76.9101H0V68.5001H5.01753V69.8208H1.54063V71.9775H4.54896V73.2986H1.54063V75.5894H5.29832Z" fill="#1A9CD8"/>
<path d="M16.9049 68.487V76.9097H15.3354L11.0065 70.9053V76.9097H9.52618V68.4996H11.0672L15.4245 74.5329V68.487H16.9049Z" fill="#1A9CD8"/>
<path d="M28.454 72.3031V76.6007C28.1798 76.6807 27.9597 76.7414 27.7937 76.7859C27.6278 76.8305 27.4444 76.8733 27.2483 76.9104C27.0173 76.9633 26.7828 76.9995 26.5466 77.0187C26.2815 77.0445 25.9627 77.0571 25.5924 77.0571C24.8588 77.0571 24.2027 76.9443 23.6243 76.7187C23.0762 76.5126 22.5767 76.1954 22.157 75.7871C21.7565 75.3922 21.444 74.9171 21.24 74.393C21.0265 73.8438 20.9193 73.2591 20.9242 72.67C20.9272 71.5472 21.3725 70.4709 22.1635 69.6743C22.5706 69.2643 23.0539 68.9378 23.5863 68.7134C24.1631 68.4688 24.7843 68.3462 25.4107 68.3531C25.7362 68.3531 26.0223 68.3627 26.2688 68.382C26.5012 68.4001 26.7324 68.432 26.961 68.4776C27.1722 68.5215 27.3801 68.5799 27.5833 68.6523C27.7907 68.7257 28.0138 68.8117 28.2597 68.9104L28.1461 70.408C27.6169 70.1242 27.1448 69.9329 26.73 69.8276C26.305 69.7242 25.8691 69.6728 25.4317 69.6743C25.0489 69.6702 24.6692 69.743 24.3151 69.8883C23.9779 70.0272 23.6736 70.2356 23.4221 70.4998C23.1612 70.7702 22.9592 71.0917 22.8286 71.444C22.6814 71.8365 22.609 72.253 22.6151 72.6722C22.6151 73.1604 22.6946 73.5946 22.8574 73.9772C23.0019 74.3359 23.2205 74.66 23.499 74.9284C23.7774 75.1967 24.1094 75.4031 24.4732 75.5342C24.8511 75.6713 25.2502 75.7405 25.6522 75.7386C25.8756 75.7408 26.0987 75.7237 26.3191 75.6875C26.5215 75.6515 26.7209 75.6003 26.9156 75.5342V73.6391H25.4011V72.3053L28.454 72.3031Z" fill="#1A9CD8"/>
<path d="M34.4361 68.5001H32.8982V76.9101H34.4361V68.5001Z" fill="#1A9CD8"/>
<path d="M46.5041 68.487V76.9097H44.9316L40.6027 70.9053V76.9097H39.1228V68.4996H40.6634L45.0207 74.5329V68.487H46.5041Z" fill="#1A9CD8"/>
<path d="M56.511 75.5894V76.9101H51.2122V68.5001H56.2302V69.8208H52.7533V71.9775H55.7612V73.2986H52.7533V75.5894H56.511Z" fill="#1A9CD8"/>
<path d="M66.0156 75.5894V76.9101H60.7199V68.5001H65.7379V69.8208H62.261V71.9775H65.2689V73.2986H62.261V75.5894H66.0156Z" fill="#1A9CD8"/>
<path d="M75.806 75.9335C75.5877 75.637 75.3885 75.3435 75.1946 75.06C75.0008 74.7766 74.8182 74.4953 74.6427 74.2114C74.4671 73.9275 74.2855 73.6244 74.1007 73.299C74.6065 73.1523 75.053 72.8497 75.3767 72.4343C75.7117 72.0132 75.8772 71.5171 75.8772 70.9493C75.8772 70.4995 75.7947 70.1169 75.6252 69.7976C75.465 69.4868 75.2346 69.2177 74.9523 69.0114C74.6498 68.7985 74.3086 68.6467 73.9479 68.5646C73.5411 68.4694 73.1246 68.4223 72.7068 68.4244C72.2859 68.4244 71.8681 68.4373 71.4536 68.4629C71.0356 68.4852 70.6177 68.5135 70.1998 68.5424V76.9079H71.7405V73.5012H72.3689C72.5667 73.8428 72.7453 74.1524 72.9112 74.4328C73.0772 74.7132 73.2461 74.9818 73.4182 75.2465C73.5903 75.5112 73.7628 75.7763 73.9383 76.041C74.1138 76.3056 74.3178 76.593 74.5414 76.9057H76.5383C76.265 76.5572 76.0209 76.2331 75.806 75.9335ZM73.854 71.8691C73.6178 72.0988 73.1745 72.2137 72.5173 72.2137H71.7422V69.7919L72.5047 69.7762H72.6226C73.168 69.7762 73.5702 69.8749 73.8252 70.0697C74.0802 70.2645 74.2047 70.5449 74.2047 70.9056C74.2047 71.3171 74.0859 71.6394 73.8553 71.8691H73.854Z" fill="#1A9CD8"/>
<path d="M81.5396 68.5001H80.0017V76.9101H81.5396V68.5001Z" fill="#1A9CD8"/>
<path d="M93.6044 68.487V76.9097H92.0349L87.7061 70.9053V76.9097H86.2257V68.4996H87.7668L92.124 74.5329V68.487H93.6044Z" fill="#1A9CD8"/>
<path d="M105.153 72.303V76.6007C104.879 76.6806 104.659 76.7413 104.493 76.7859C104.327 76.8304 104.143 76.8732 103.947 76.9103C103.716 76.9632 103.481 76.9994 103.245 77.0186C102.98 77.0444 102.662 77.0571 102.291 77.0571C101.558 77.0571 100.902 76.9443 100.323 76.7186C99.7752 76.5125 99.2757 76.1953 98.856 75.787C98.4555 75.3921 98.1429 74.9171 97.9389 74.3929C97.7255 73.8438 97.6183 73.2591 97.6232 72.6699C97.621 72.1151 97.7306 71.5655 97.9455 71.0539C98.1578 70.5379 98.4694 70.0685 98.8625 69.6725C99.2713 69.2631 99.7554 68.9368 100.288 68.7116C100.865 68.467 101.486 68.3444 102.113 68.3513C102.438 68.3513 102.724 68.3609 102.971 68.3802C103.203 68.3983 103.434 68.4302 103.663 68.4758C103.874 68.5197 104.082 68.5781 104.285 68.6505C104.493 68.7239 104.716 68.8099 104.962 68.9086L104.843 70.4049C104.314 70.121 103.842 69.9297 103.427 69.8245C103.002 69.7212 102.566 69.6697 102.129 69.6712C101.746 69.6671 101.366 69.7399 101.012 69.8852C100.675 70.0241 100.371 70.2325 100.119 70.4966C99.8586 70.7677 99.6556 71.089 99.5228 71.4409C99.3779 71.8339 99.3066 72.2502 99.3123 72.669C99.3123 73.1573 99.3918 73.5915 99.5547 73.9741C99.6991 74.3328 99.9177 74.6569 100.196 74.9252C100.475 75.1936 100.807 75.4 101.17 75.5311C101.548 75.6682 101.947 75.7374 102.349 75.7355C102.573 75.7377 102.796 75.7206 103.016 75.6844C103.219 75.6484 103.418 75.5972 103.613 75.5311V73.636H102.101V72.3022L105.153 72.303Z" fill="#1A9CD8"/>
<path d="M123.083 79.067C122.888 79.067 122.712 79.062 122.555 79.0521C122.41 79.0437 122.265 79.0265 122.122 79.0006C121.992 78.9771 121.865 78.9429 121.741 78.8984C121.604 78.8468 121.474 78.7803 121.352 78.7001C121.2 78.604 121.06 78.4907 120.934 78.3625C120.772 78.2061 120.606 78.0275 120.435 77.8266C120.264 77.6257 120.088 77.413 119.906 77.1885C119.726 76.9631 119.557 76.7429 119.4 76.5277C119.059 76.7689 118.673 76.9387 118.265 77.0269C117.856 77.1072 117.441 77.1466 117.025 77.1444C116.685 77.1447 116.348 77.0877 116.027 76.9758C115.711 76.8672 115.416 76.7058 115.154 76.4984C114.895 76.2936 114.682 76.036 114.53 75.7429C114.371 75.4323 114.29 75.0874 114.295 74.7383C114.292 74.4259 114.344 74.1153 114.449 73.8212C114.547 73.5526 114.68 73.2984 114.845 73.0656C115.007 72.8397 115.194 72.6328 115.403 72.4489C115.607 72.2685 115.826 72.1064 116.058 71.9645C115.902 71.7689 115.77 71.5952 115.662 71.4435C115.561 71.3033 115.471 71.1561 115.39 71.0032C115.252 70.7429 115.177 70.4533 115.174 70.1584C115.17 69.8635 115.237 69.572 115.368 69.3082C115.494 69.0663 115.672 68.8556 115.889 68.6919C116.119 68.5207 116.377 68.3915 116.652 68.3102C116.945 68.222 117.249 68.1779 117.555 68.1792C117.864 68.1736 118.172 68.2233 118.465 68.326C118.714 68.415 118.943 68.5521 119.14 68.7295C119.321 68.8944 119.464 69.0974 119.558 69.3239C119.65 69.5471 119.698 69.7864 119.697 70.028C119.7 70.2794 119.652 70.5287 119.558 70.7617C119.467 70.9842 119.343 71.192 119.191 71.3784C119.038 71.5665 118.865 71.7386 118.677 71.892C118.498 72.0408 118.309 72.1781 118.113 72.303L119.697 74.5339C119.932 74.2632 120.12 73.9559 120.255 73.6242C120.378 73.2898 120.448 72.9379 120.461 72.5817H119.477V71.5985H122.852V72.5817H121.957C121.862 73.1347 121.709 73.6762 121.502 74.1976C121.306 74.6772 120.979 75.1468 120.519 75.6066C120.665 75.8023 120.838 76.0222 121.04 76.2665C121.242 76.5108 121.437 76.7437 121.627 76.9653C121.818 77.1854 121.986 77.3762 122.133 77.5375C122.28 77.6988 122.383 77.7941 122.441 77.8235C122.517 77.8541 122.596 77.8764 122.676 77.8899C122.875 77.9218 123.076 77.9389 123.278 77.941L123.083 79.067ZM116.834 73.0503C116.677 73.1668 116.543 73.2743 116.431 73.373C116.208 73.5612 116.051 73.8159 115.983 74.0998C115.941 74.2751 115.921 74.455 115.924 74.6353C115.922 74.8102 115.959 74.9833 116.034 75.1415C116.105 75.2896 116.208 75.4201 116.335 75.5232C116.461 75.6253 116.602 75.707 116.754 75.7651C116.906 75.8237 117.067 75.8533 117.23 75.8525C117.713 75.8591 118.189 75.7375 118.609 75.5L116.834 73.0503ZM118.169 70.0856C118.169 69.8608 118.118 69.6847 118.016 69.5572C117.913 69.4296 117.735 69.3661 117.48 69.3667C117.196 69.3667 116.995 69.4376 116.878 69.5794C116.759 69.7266 116.697 69.9115 116.703 70.1005C116.709 70.1903 116.734 70.2779 116.777 70.3573C116.829 70.4658 116.887 70.5711 116.951 70.6726C117.02 70.7805 117.089 70.8836 117.157 70.981C117.226 71.0784 117.284 71.1557 117.332 71.2159C117.551 71.095 117.748 70.9359 117.911 70.746C118.077 70.566 118.169 70.3303 118.169 70.0856Z" fill="#EFEEEE"/>
<path d="M134.672 69.8075V76.9104H133.131V69.8075H130.651V68.4864H137.167V69.8075H134.672Z" fill="#EFEEEE"/>
<path d="M140.921 76.9099V68.5007H145.939V69.8214H142.461V71.979H145.469V73.3019H142.461V75.5913H146.217V76.9121L140.921 76.9099Z" fill="#EFEEEE"/>
<path d="M156.9 76.5868C156.508 76.7669 156.093 76.8928 155.668 76.9611C155.206 77.0284 154.74 77.0602 154.273 77.0563C153.72 77.0554 153.172 76.9586 152.652 76.7702C152.125 76.583 151.637 76.2994 151.214 75.9339C150.781 75.5584 150.429 75.099 150.179 74.5834C149.915 74.0506 149.783 73.4367 149.783 72.7417C149.779 72.1542 149.897 71.5723 150.128 71.0322C150.35 70.5102 150.671 70.0365 151.074 69.6377C151.486 69.2347 151.972 68.9156 152.505 68.6982C153.075 68.4652 153.686 68.3481 154.302 68.3536C154.625 68.3536 154.904 68.3634 155.139 68.3829C155.374 68.4024 155.587 68.4293 155.777 68.4637C155.964 68.497 156.147 68.5435 156.327 68.603C156.502 68.6612 156.693 68.734 156.9 68.8214L156.782 70.3037C156.519 70.1768 156.281 70.0715 156.071 69.9879C155.872 69.9089 155.669 69.8428 155.462 69.7901C155.267 69.7412 155.068 69.7092 154.868 69.6944C154.667 69.6799 154.444 69.6726 154.2 69.6726C153.845 69.6712 153.494 69.7386 153.165 69.8709C152.84 70.002 152.545 70.1993 152.299 70.4505C152.039 70.7213 151.835 71.0405 151.698 71.3899C151.395 72.1963 151.395 73.0856 151.698 73.8921C151.841 74.2548 152.052 74.5863 152.322 74.8682C152.582 75.1395 152.894 75.3565 153.239 75.5067C153.593 75.6596 153.975 75.7369 154.361 75.7338C154.547 75.7338 154.728 75.7266 154.904 75.712C155.087 75.6962 155.268 75.6671 155.447 75.6246C155.652 75.5749 155.853 75.5111 156.049 75.4338C156.264 75.3508 156.509 75.2407 156.782 75.1036L156.9 76.5868Z" fill="#EFEEEE"/>
<path d="M167.056 76.9099V73.3587H162.565V76.9099H161.025V68.5007H162.565V72.0082H167.056V68.5007H168.597V76.9099H167.056Z" fill="#EFEEEE"/>
<path d="M181.32 69.8075V76.9104H179.778V69.8075H177.299V68.4864H183.814V69.8075H181.32Z" fill="#EFEEEE"/>
<path d="M191.208 76.9094L190.461 74.723H187.982L187.186 76.9094H185.734L188.918 68.2211H189.74L192.748 76.9094H191.208ZM189.256 71.0242L188.434 73.4167H189.99L189.256 71.0242Z" fill="#EFEEEE"/>
<path d="M196.39 76.9099V68.5007H197.931V75.5891H201.541V76.9099H196.39Z" fill="#EFEEEE"/>
<path d="M209.581 76.9099C209.454 76.7061 209.29 76.4347 209.09 76.0958C208.889 75.7569 208.666 75.4045 208.422 75.0388C208.177 74.672 207.918 74.3148 207.644 73.9675C207.401 73.653 207.126 73.3652 206.823 73.1088V76.9086H205.282V68.5007H206.823V71.8907C207.355 71.3772 207.843 70.82 208.283 70.225C208.727 69.6237 209.155 69.0489 209.566 68.5007H211.386C211.181 68.7651 210.955 69.0683 210.711 69.4104C210.466 69.7525 210.207 70.102 209.933 70.4586C209.659 70.8159 209.378 71.1653 209.09 71.5068C208.824 71.8243 208.542 72.1279 208.246 72.4166C208.573 72.7371 208.877 73.0804 209.155 73.4438C209.459 73.8352 209.75 74.2389 210.029 74.6549C210.308 75.071 210.57 75.4769 210.815 75.8726C211.059 76.2692 211.28 76.6141 211.475 76.9073L209.581 76.9099Z" fill="#EFEEEE"/>
<path d="M220 74.5761C220 74.9971 219.914 75.364 219.743 75.6767C219.578 75.9828 219.35 76.2507 219.075 76.4629C218.798 76.6749 218.485 76.8342 218.151 76.9328C217.818 77.034 217.472 77.0858 217.123 77.0865C216.69 77.0909 216.257 77.0516 215.832 76.969C215.408 76.877 214.995 76.7393 214.6 76.5585L214.818 75.0299C215.063 75.1755 215.28 75.2954 215.471 75.3898C215.646 75.4762 215.828 75.5492 216.014 75.6081C216.179 75.661 216.349 75.7003 216.52 75.7256C216.7 75.7514 216.881 75.7636 217.063 75.7623C217.392 75.7702 217.713 75.6639 217.973 75.4614C218.093 75.3728 218.191 75.2566 218.257 75.1226C218.324 74.9885 218.357 74.8405 218.354 74.691C218.356 74.5286 218.301 74.3708 218.2 74.2437C218.081 74.096 217.94 73.9673 217.782 73.862C217.589 73.7296 217.388 73.6096 217.181 73.5026C216.955 73.3861 216.725 73.2588 216.491 73.1208C216.197 72.9461 215.938 72.7799 215.713 72.6221C215.501 72.4762 215.306 72.3062 215.133 72.1154C214.804 71.7591 214.627 71.2874 214.642 70.8021C214.64 70.4722 214.705 70.1454 214.832 69.8413C214.958 69.5454 215.146 69.2802 215.383 69.0639C215.637 68.8347 215.934 68.6576 216.257 68.5428C216.624 68.4114 217.011 68.3467 217.401 68.3519C217.675 68.3519 217.92 68.3617 218.135 68.3812C218.35 68.4007 218.55 68.4276 218.736 68.462C218.923 68.4969 219.107 68.5459 219.287 68.6088C219.467 68.6725 219.67 68.7484 219.895 68.8363L219.778 70.392C219.551 70.2556 219.318 70.1307 219.079 70.0177C218.897 69.9316 218.708 69.8605 218.514 69.805C218.346 69.7576 218.174 69.7232 218.001 69.7019C217.821 69.6815 217.639 69.6717 217.458 69.6727C217.086 69.6727 216.805 69.7803 216.614 69.9954C216.432 70.1906 216.329 70.4475 216.328 70.7148C216.327 70.8861 216.381 71.0534 216.482 71.1917C216.588 71.3365 216.717 71.4629 216.864 71.566C217.018 71.6755 217.18 71.7736 217.348 71.8595C217.519 71.9468 217.678 72.0342 217.825 72.1215L218.06 72.2526C218.295 72.3897 218.529 72.5317 218.764 72.6784C218.99 72.8181 219.199 72.9829 219.388 73.1698C219.567 73.3495 219.716 73.5577 219.828 73.786C219.945 74.0326 220.004 74.303 220 74.5761Z" fill="#EFEEEE"/>
<path d="M49.8205 1.35036V9.27957C49.8204 9.39016 49.7764 9.49618 49.6982 9.57438C49.62 9.65257 49.514 9.69655 49.4034 9.69667H42.0383C41.9397 9.69603 41.8442 9.73103 41.7693 9.79523C41.6944 9.85943 41.6453 9.9485 41.6309 10.0461C41.6242 10.0683 41.621 10.0914 41.6213 10.1146V54.4169C41.6209 54.4411 41.6242 54.4653 41.6309 54.4885C41.6138 54.5852 41.5632 54.6727 41.4881 54.7359C41.413 54.799 41.3181 54.8338 41.2199 54.834H33.2574C33.2292 54.834 33.2011 54.831 33.1736 54.8248H1.38545C1.27488 54.8247 1.16887 54.7808 1.09069 54.7026C1.0125 54.6244 0.96853 54.5183 0.968414 54.4078V46.3008C0.967589 46.2356 0.983689 46.1714 1.01514 46.1143V36.977C1.01491 36.866 1.05867 36.7595 1.13684 36.6807C1.21502 36.602 1.32122 36.5574 1.43217 36.5569H9.55934C9.67029 36.5574 9.77649 36.602 9.85467 36.6807C9.93284 36.7595 9.9766 36.866 9.97637 36.977V45.467C9.97649 45.5776 10.0205 45.6835 10.0987 45.7617C10.1769 45.8398 10.2829 45.8837 10.3934 45.8837H32.4255C32.4802 45.8837 32.5344 45.873 32.585 45.8521C32.6355 45.8312 32.6815 45.8006 32.7202 45.762C32.759 45.7233 32.7897 45.6774 32.8107 45.6269C32.8317 45.5763 32.8425 45.5222 32.8426 45.4675V10.1138C32.8424 10.0032 32.7985 9.89716 32.7203 9.81896C32.6421 9.74077 32.5361 9.69678 32.4255 9.69667H25.1206C25.0097 9.6969 24.9032 9.65313 24.8244 9.57495C24.7457 9.49676 24.7011 9.39054 24.7005 9.27957V1.35036C24.7011 1.23938 24.7457 1.13317 24.8244 1.05498C24.9032 0.976799 25.0097 0.933026 25.1206 0.933259H49.4034C49.514 0.933375 49.62 0.977356 49.6982 1.05555C49.7764 1.13375 49.8204 1.23977 49.8205 1.35036Z" fill="#EFEEEE"/>
<path d="M106.761 37.005V54.3877C106.761 54.4424 106.751 54.4966 106.73 54.5471C106.709 54.5977 106.678 54.6437 106.64 54.6824C106.601 54.7211 106.555 54.7519 106.504 54.7729C106.454 54.7939 106.4 54.8047 106.345 54.8048H57.7445C57.6344 54.8042 57.529 54.76 57.4514 54.6818C57.3738 54.6036 57.3303 54.4978 57.3306 54.3877V46.4825C57.3304 46.3724 57.3739 46.2667 57.4515 46.1886C57.5291 46.1105 57.6345 46.0664 57.7445 46.0658H66.9224V10.1138C66.9221 10.0032 66.8781 9.89726 66.8 9.81909C66.7218 9.74092 66.6159 9.6969 66.5053 9.69667H57.7367C57.6261 9.69655 57.5201 9.65257 57.4419 9.57438C57.3637 9.49618 57.3198 9.39016 57.3196 9.27957V1.3473C57.3202 1.23714 57.3644 1.1317 57.4426 1.05409C57.5208 0.976476 57.6265 0.933026 57.7367 0.933259H106.034C106.144 0.933026 106.25 0.976476 106.328 1.05409C106.406 1.1317 106.451 1.23714 106.451 1.3473V18.5038C106.451 18.6143 106.407 18.7204 106.329 18.7986C106.251 18.8768 106.145 18.9207 106.034 18.9209H98.1673C98.1126 18.9209 98.0584 18.9102 98.0078 18.8893C97.9572 18.8684 97.9113 18.8378 97.8726 18.7991C97.8338 18.7605 97.8031 18.7146 97.7821 18.664C97.7611 18.6135 97.7503 18.5593 97.7502 18.5046V10.1138C97.7505 10.0036 97.707 9.89784 97.6294 9.81966C97.5518 9.74148 97.4464 9.69725 97.3362 9.69667H76.1181C76.0076 9.69679 75.9016 9.74078 75.8235 9.81899C75.7454 9.8972 75.7015 10.0032 75.7015 10.1138V21.7624C75.7015 21.8729 75.7454 21.9789 75.8235 22.0571C75.9016 22.1353 76.0076 22.1793 76.1181 22.1795H89.568C89.6786 22.1795 89.7846 22.2233 89.8628 22.3015C89.941 22.3796 89.985 22.4856 89.9851 22.5961V30.5C89.9848 30.6106 89.9408 30.7165 89.8627 30.7947C89.7845 30.8728 89.6786 30.9169 89.568 30.9171H78.2622V30.9293H76.1181C76.0076 30.9294 75.9016 30.9734 75.8235 31.0516C75.7454 31.1299 75.7015 31.2359 75.7015 31.3464V45.6465C75.7015 45.7571 75.7454 45.8631 75.8235 45.9413C75.9016 46.0195 76.0076 46.0635 76.1181 46.0636H97.6467C97.7568 46.0629 97.8621 46.0187 97.9396 45.9405C98.0171 45.8623 98.0605 45.7566 98.0603 45.6465V37.005C98.0604 36.8944 98.1044 36.7884 98.1826 36.7103C98.2608 36.6322 98.3668 36.5883 98.4773 36.5883H106.343C106.398 36.5881 106.452 36.5987 106.503 36.6195C106.553 36.6403 106.599 36.6709 106.638 36.7094C106.677 36.748 106.708 36.7938 106.729 36.8443C106.75 36.8948 106.761 36.9489 106.761 37.0037V37.005Z" fill="#1A9CD8"/>
<path d="M163.783 37.005V54.3877C163.783 54.4424 163.772 54.4966 163.751 54.5471C163.73 54.5977 163.7 54.6437 163.661 54.6824C163.622 54.7211 163.576 54.7519 163.526 54.7729C163.475 54.7939 163.421 54.8047 163.366 54.8048H114.766C114.656 54.8042 114.551 54.76 114.473 54.6818C114.396 54.6036 114.352 54.4978 114.352 54.3877V46.4825C114.352 46.3724 114.396 46.2667 114.473 46.1886C114.551 46.1105 114.656 46.0664 114.766 46.0658H123.942V10.1138C123.942 10.0032 123.898 9.89726 123.82 9.81909C123.742 9.74092 123.636 9.6969 123.525 9.69667H114.757C114.646 9.69667 114.54 9.65277 114.462 9.57463C114.384 9.49649 114.34 9.39052 114.34 9.28001V1.3473C114.341 1.23721 114.385 1.13184 114.463 1.05424C114.541 0.976643 114.647 0.933142 114.757 0.933259H163.054C163.164 0.933026 163.27 0.976476 163.348 1.05409C163.426 1.1317 163.471 1.23714 163.471 1.3473V18.5038C163.471 18.6143 163.427 18.7204 163.349 18.7986C163.271 18.8768 163.165 18.9207 163.054 18.9209H155.189C155.078 18.9207 154.972 18.8768 154.894 18.7986C154.816 18.7204 154.772 18.6143 154.772 18.5038V10.1138C154.772 10.0036 154.729 9.89784 154.651 9.81966C154.574 9.74148 154.468 9.69725 154.358 9.69667H133.14C133.03 9.69679 132.924 9.74077 132.846 9.81896C132.767 9.89716 132.723 10.0032 132.723 10.1138V21.7624C132.723 21.8729 132.767 21.979 132.846 22.0572C132.924 22.1354 133.03 22.1793 133.14 22.1795H146.59C146.701 22.1795 146.807 22.2233 146.885 22.3015C146.963 22.3796 147.007 22.4856 147.007 22.5961V30.5C147.007 30.6106 146.963 30.7165 146.885 30.7947C146.807 30.8728 146.701 30.9169 146.59 30.9171H135.284V30.9293H133.14C133.03 30.9294 132.924 30.9734 132.846 31.0516C132.767 31.1298 132.723 31.2358 132.723 31.3464V45.6465C132.723 45.7571 132.767 45.8631 132.846 45.9413C132.924 46.0195 133.03 46.0635 133.14 46.0636H154.669C154.779 46.063 154.885 46.0188 154.962 45.9406C155.04 45.8625 155.083 45.7567 155.083 45.6465V37.005C155.083 36.8945 155.127 36.7885 155.205 36.7104C155.283 36.6322 155.389 36.5883 155.5 36.5883H163.366C163.476 36.5883 163.582 36.6322 163.661 36.7104C163.739 36.7885 163.783 36.8945 163.783 37.005Z" fill="#EFEEEE"/>
<path d="M219.029 37.0395V54.4222C219.029 54.5318 218.985 54.6367 218.907 54.7141C218.83 54.7916 218.725 54.8353 218.615 54.8358H171.782C171.673 54.8353 171.568 54.7916 171.49 54.7141C171.413 54.6367 171.369 54.5317 171.369 54.4222V46.4851C171.369 46.4469 171.375 46.409 171.387 46.3728V7.72037C171.387 7.7108 171.388 7.70121 171.39 7.69198V1.3473C171.391 1.23759 171.434 1.13248 171.512 1.05491C171.589 0.977337 171.695 0.933604 171.804 0.933258H217.479C217.589 0.933604 217.694 0.977337 217.772 1.05491C217.849 1.13248 217.893 1.23759 217.893 1.3473V18.5383C217.893 18.6479 217.849 18.7528 217.771 18.8302C217.694 18.9077 217.589 18.9514 217.479 18.9519H209.607C209.498 18.9515 209.393 18.9078 209.315 18.8304C209.238 18.7529 209.194 18.6479 209.193 18.5383V10.109C209.193 9.99936 209.149 9.89445 209.071 9.81695C208.994 9.73945 208.889 9.69561 208.779 9.69492H180.579C180.469 9.69561 180.365 9.73945 180.287 9.81695C180.21 9.89445 180.166 9.99936 180.165 10.109V45.6553C180.166 45.7649 180.21 45.8698 180.287 45.9473C180.365 46.0248 180.469 46.0686 180.579 46.0693H209.915C210.025 46.0692 210.131 46.0256 210.208 45.948C210.286 45.8705 210.331 45.7652 210.331 45.6553V37.0382C210.331 36.9838 210.342 36.93 210.363 36.8798C210.383 36.8296 210.414 36.784 210.452 36.7456C210.49 36.7071 210.536 36.6766 210.586 36.6558C210.636 36.6349 210.69 36.6242 210.744 36.6241H218.615C218.67 36.6241 218.723 36.6347 218.773 36.6554C218.824 36.6762 218.869 36.7066 218.908 36.7449C218.946 36.7833 218.977 36.8289 218.998 36.879C219.018 36.9292 219.029 36.983 219.029 37.0373V37.0395Z" fill="#EFEEEE"/>
</svg>
